<?xml version="1.0" encoding="utf-8"?>
<!-- Generator: Adobe Illustrator 24.3.0, SVG Export Plug-In . SVG Version: 6.00 Build 0)  -->
<svg version="1.1" id="Capa_1" xmlns="http://www.w3.org/2000/svg" xmlns:xlink="http://www.w3.org/1999/xlink" x="0px" y="0px"
	 viewBox="0 0 805 600" style="enable-background:new 0 0 805 600;" xml:space="preserve">
<style type="text/css">
	.st0{fill:#FFFFFF;}
	.st1{opacity:0.5;fill:#1F77B4;stroke:#1F77B4;stroke-width:10;stroke-linejoin:round;enable-background:new    ;}
	.st2{fill:#1F77B4;}
	.st3{opacity:0.5;fill:#FF7F0E;stroke:#FF7F0E;stroke-width:10;stroke-linejoin:round;enable-background:new    ;}
	.st4{fill:#FF7F0E;}
	.st5{opacity:0.5;fill:#2CA02C;stroke:#2CA02C;stroke-width:10;stroke-linejoin:round;enable-background:new    ;}
	.st6{fill:#2CA02C;}
	.st7{fill:none;stroke:#000000;}
	.st8{font-family:'Helvetica';}
	.st9{font-size:10px;}
	.st10{fill:#7B7B7B;}
	.st11{font-family:'Arial-BoldMT';}
	.st12{font-size:12px;}
</style>
<rect id="background" class="st0" width="805" height="600"/>
<g id="visualization" transform="translate(50,50)">
	<g id="viz">
		<g>
			<path class="st1" d="M163,450l-55-25H54l-27,33v34l27,8L163,450z"/>
			<g>
				<circle class="st2" cx="54" cy="467" r="1"/>
				<circle class="st2" cx="54" cy="467" r="1"/>
				<circle class="st2" cx="54" cy="475" r="1"/>
				<circle class="st2" cx="54" cy="458" r="1"/>
				<circle class="st2" cx="54" cy="467" r="1"/>
				<circle class="st2" cx="108" cy="442" r="1"/>
				<circle class="st2" cx="81" cy="467" r="1"/>
				<circle class="st2" cx="54" cy="458" r="1"/>
				<circle class="st2" cx="54" cy="467" r="1"/>
				<circle class="st2" cx="27" cy="458" r="1"/>
				<circle class="st2" cx="54" cy="458" r="1"/>
				<circle class="st2" cx="54" cy="450" r="1"/>
				<circle class="st2" cx="27" cy="467" r="1"/>
				<circle class="st2" cx="27" cy="492" r="1"/>
				<circle class="st2" cx="54" cy="483" r="1"/>
				<circle class="st2" cx="108" cy="458" r="1"/>
				<circle class="st2" cx="108" cy="475" r="1"/>
				<circle class="st2" cx="81" cy="467" r="1"/>
				<circle class="st2" cx="81" cy="442" r="1"/>
				<circle class="st2" cx="81" cy="458" r="1"/>
				<circle class="st2" cx="54" cy="442" r="1"/>
				<circle class="st2" cx="108" cy="458" r="1"/>
				<circle class="st2" cx="54" cy="500" r="1"/>
				<circle class="st2" cx="136" cy="442" r="1"/>
				<circle class="st2" cx="54" cy="425" r="1"/>
				<circle class="st2" cx="54" cy="450" r="1"/>
				<circle class="st2" cx="108" cy="450" r="1"/>
				<circle class="st2" cx="54" cy="458" r="1"/>
				<circle class="st2" cx="54" cy="467" r="1"/>
				<circle class="st2" cx="54" cy="450" r="1"/>
				<circle class="st2" cx="54" cy="450" r="1"/>
				<circle class="st2" cx="108" cy="458" r="1"/>
				<circle class="st2" cx="27" cy="458" r="1"/>
				<circle class="st2" cx="54" cy="467" r="1"/>
				<circle class="st2" cx="27" cy="458" r="1"/>
				<circle class="st2" cx="54" cy="483" r="1"/>
				<circle class="st2" cx="54" cy="475" r="1"/>
				<circle class="st2" cx="27" cy="458" r="1"/>
				<circle class="st2" cx="54" cy="475" r="1"/>
				<circle class="st2" cx="54" cy="458" r="1"/>
				<circle class="st2" cx="81" cy="475" r="1"/>
				<circle class="st2" cx="81" cy="475" r="1"/>
				<circle class="st2" cx="54" cy="475" r="1"/>
				<circle class="st2" cx="163" cy="450" r="1"/>
				<circle class="st2" cx="108" cy="425" r="1"/>
				<circle class="st2" cx="81" cy="467" r="1"/>
				<circle class="st2" cx="54" cy="450" r="1"/>
				<circle class="st2" cx="54" cy="467" r="1"/>
				<circle class="st2" cx="54" cy="458" r="1"/>
				<circle class="st2" cx="54" cy="467" r="1"/>
			</g>
		</g>
		<g>
			<path class="st3" d="M488,183l-27-16l-27-9l-109,34l-54,50v66l27,25L488,183z"/>
			<g>
				<circle class="st4" cx="380" cy="192" r="1"/>
				<circle class="st4" cx="407" cy="208" r="1"/>
				<circle class="st4" cx="407" cy="175" r="1"/>
				<circle class="st4" cx="353" cy="250" r="1"/>
				<circle class="st4" cx="407" cy="200" r="1"/>
				<circle class="st4" cx="353" cy="208" r="1"/>
				<circle class="st4" cx="434" cy="192" r="1"/>
				<circle class="st4" cx="271" cy="308" r="1"/>
				<circle class="st4" cx="353" cy="200" r="1"/>
				<circle class="st4" cx="380" cy="258" r="1"/>
				<circle class="st4" cx="271" cy="292" r="1"/>
				<circle class="st4" cx="407" cy="233" r="1"/>
				<circle class="st4" cx="271" cy="250" r="1"/>
				<circle class="st4" cx="380" cy="192" r="1"/>
				<circle class="st4" cx="353" cy="283" r="1"/>
				<circle class="st4" cx="380" cy="217" r="1"/>
				<circle class="st4" cx="407" cy="208" r="1"/>
				<circle class="st4" cx="271" cy="242" r="1"/>
				<circle class="st4" cx="407" cy="208" r="1"/>
				<circle class="st4" cx="298" cy="258" r="1"/>
				<circle class="st4" cx="488" cy="183" r="1"/>
				<circle class="st4" cx="353" cy="250" r="1"/>
				<circle class="st4" cx="407" cy="175" r="1"/>
				<circle class="st4" cx="325" cy="192" r="1"/>
				<circle class="st4" cx="353" cy="225" r="1"/>
				<circle class="st4" cx="380" cy="217" r="1"/>
				<circle class="st4" cx="380" cy="183" r="1"/>
				<circle class="st4" cx="461" cy="167" r="1"/>
				<circle class="st4" cx="407" cy="208" r="1"/>
				<circle class="st4" cx="271" cy="292" r="1"/>
				<circle class="st4" cx="298" cy="267" r="1"/>
				<circle class="st4" cx="271" cy="275" r="1"/>
				<circle class="st4" cx="325" cy="258" r="1"/>
				<circle class="st4" cx="434" cy="158" r="1"/>
				<circle class="st4" cx="407" cy="208" r="1"/>
				<circle class="st4" cx="434" cy="208" r="1"/>
				<circle class="st4" cx="407" cy="192" r="1"/>
				<circle class="st4" cx="353" cy="217" r="1"/>
				<circle class="st4" cx="353" cy="242" r="1"/>
				<circle class="st4" cx="353" cy="250" r="1"/>
				<circle class="st4" cx="325" cy="217" r="1"/>
				<circle class="st4" cx="380" cy="200" r="1"/>
				<circle class="st4" cx="325" cy="250" r="1"/>
				<circle class="st4" cx="271" cy="308" r="1"/>
				<circle class="st4" cx="353" cy="233" r="1"/>
				<circle class="st4" cx="325" cy="233" r="1"/>
				<circle class="st4" cx="353" cy="233" r="1"/>
				<circle class="st4" cx="353" cy="225" r="1"/>
				<circle class="st4" cx="298" cy="333" r="1"/>
				<circle class="st4" cx="353" cy="242" r="1"/>
			</g>
		</g>
		<g>
			<path class="st5" d="M678,108V75L624,8l-82,17l-162,92l27,50l54,41l190-50L678,108z"/>
			<g>
				<circle class="st6" cx="678" cy="83" r="1"/>
				<circle class="st6" cx="515" cy="158" r="1"/>
				<circle class="st6" cx="569" cy="92" r="1"/>
				<circle class="st6" cx="488" cy="117" r="1"/>
				<circle class="st6" cx="597" cy="100" r="1"/>
				<circle class="st6" cx="569" cy="33" r="1"/>
				<circle class="st6" cx="461" cy="208" r="1"/>
				<circle class="st6" cx="488" cy="58" r="1"/>
				<circle class="st6" cx="488" cy="100" r="1"/>
				<circle class="st6" cx="678" cy="75" r="1"/>
				<circle class="st6" cx="542" cy="158" r="1"/>
				<circle class="st6" cx="515" cy="142" r="1"/>
				<circle class="st6" cx="569" cy="125" r="1"/>
				<circle class="st6" cx="542" cy="167" r="1"/>
				<circle class="st6" cx="651" cy="158" r="1"/>
				<circle class="st6" cx="624" cy="142" r="1"/>
				<circle class="st6" cx="488" cy="125" r="1"/>
				<circle class="st6" cx="597" cy="25" r="1"/>
				<circle class="st6" cx="624" cy="8" r="1"/>
				<circle class="st6" cx="407" cy="167" r="1"/>
				<circle class="st6" cx="624" cy="108" r="1"/>
				<circle class="st6" cx="542" cy="175" r="1"/>
				<circle class="st6" cx="542" cy="25" r="1"/>
				<circle class="st6" cx="488" cy="175" r="1"/>
				<circle class="st6" cx="569" cy="108" r="1"/>
				<circle class="st6" cx="488" cy="83" r="1"/>
				<circle class="st6" cx="488" cy="183" r="1"/>
				<circle class="st6" cx="488" cy="175" r="1"/>
				<circle class="st6" cx="569" cy="117" r="1"/>
				<circle class="st6" cx="434" cy="100" r="1"/>
				<circle class="st6" cx="515" cy="75" r="1"/>
				<circle class="st6" cx="542" cy="50" r="1"/>
				<circle class="st6" cx="597" cy="117" r="1"/>
				<circle class="st6" cx="407" cy="158" r="1"/>
				<circle class="st6" cx="380" cy="117" r="1"/>
				<circle class="st6" cx="624" cy="75" r="1"/>
				<circle class="st6" cx="651" cy="117" r="1"/>
				<circle class="st6" cx="488" cy="125" r="1"/>
				<circle class="st6" cx="488" cy="183" r="1"/>
				<circle class="st6" cx="569" cy="133" r="1"/>
				<circle class="st6" cx="651" cy="117" r="1"/>
				<circle class="st6" cx="624" cy="158" r="1"/>
				<circle class="st6" cx="515" cy="158" r="1"/>
				<circle class="st6" cx="624" cy="92" r="1"/>
				<circle class="st6" cx="678" cy="108" r="1"/>
				<circle class="st6" cx="624" cy="150" r="1"/>
				<circle class="st6" cx="515" cy="167" r="1"/>
				<circle class="st6" cx="542" cy="150" r="1"/>
				<circle class="st6" cx="624" cy="133" r="1"/>
				<circle class="st6" cx="488" cy="158" r="1"/>
			</g>
		</g>
	</g>
	<g id="labels">
		<g transform="translate(54,467)">
		</g>
		<g transform="translate(54,467)">
		</g>
		<g transform="translate(54,475)">
		</g>
		<g transform="translate(54,458)">
		</g>
		<g transform="translate(54,467)">
		</g>
		<g transform="translate(108,442)">
		</g>
		<g transform="translate(81,467)">
		</g>
		<g transform="translate(54,458)">
		</g>
		<g transform="translate(54,467)">
		</g>
		<g transform="translate(27,458)">
		</g>
		<g transform="translate(54,458)">
		</g>
		<g transform="translate(54,450)">
		</g>
		<g transform="translate(27,467)">
		</g>
		<g transform="translate(27,492)">
		</g>
		<g transform="translate(54,483)">
		</g>
		<g transform="translate(108,458)">
		</g>
		<g transform="translate(108,475)">
		</g>
		<g transform="translate(81,467)">
		</g>
		<g transform="translate(81,442)">
		</g>
		<g transform="translate(81,458)">
		</g>
		<g transform="translate(54,442)">
		</g>
		<g transform="translate(108,458)">
		</g>
		<g transform="translate(54,500)">
		</g>
		<g transform="translate(136,442)">
		</g>
		<g transform="translate(54,425)">
		</g>
		<g transform="translate(54,450)">
		</g>
		<g transform="translate(108,450)">
		</g>
		<g transform="translate(54,458)">
		</g>
		<g transform="translate(54,467)">
		</g>
		<g transform="translate(54,450)">
		</g>
		<g transform="translate(54,450)">
		</g>
		<g transform="translate(108,458)">
		</g>
		<g transform="translate(27,458)">
		</g>
		<g transform="translate(54,467)">
		</g>
		<g transform="translate(27,458)">
		</g>
		<g transform="translate(54,483)">
		</g>
		<g transform="translate(54,475)">
		</g>
		<g transform="translate(27,458)">
		</g>
		<g transform="translate(54,475)">
		</g>
		<g transform="translate(54,458)">
		</g>
		<g transform="translate(81,475)">
		</g>
		<g transform="translate(81,475)">
		</g>
		<g transform="translate(54,475)">
		</g>
		<g transform="translate(163,450)">
		</g>
		<g transform="translate(108,425)">
		</g>
		<g transform="translate(81,467)">
		</g>
		<g transform="translate(54,450)">
		</g>
		<g transform="translate(54,467)">
		</g>
		<g transform="translate(54,458)">
		</g>
		<g transform="translate(54,467)">
		</g>
		<g transform="translate(380,192)">
		</g>
		<g transform="translate(407,208)">
		</g>
		<g transform="translate(407,175)">
		</g>
		<g transform="translate(353,250)">
		</g>
		<g transform="translate(407,200)">
		</g>
		<g transform="translate(353,208)">
		</g>
		<g transform="translate(434,192)">
		</g>
		<g transform="translate(271,308)">
		</g>
		<g transform="translate(353,200)">
		</g>
		<g transform="translate(380,258)">
		</g>
		<g transform="translate(271,292)">
		</g>
		<g transform="translate(407,233)">
		</g>
		<g transform="translate(271,250)">
		</g>
		<g transform="translate(380,192)">
		</g>
		<g transform="translate(353,283)">
		</g>
		<g transform="translate(380,217)">
		</g>
		<g transform="translate(407,208)">
		</g>
		<g transform="translate(271,242)">
		</g>
		<g transform="translate(407,208)">
		</g>
		<g transform="translate(298,258)">
		</g>
		<g transform="translate(488,183)">
		</g>
		<g transform="translate(353,250)">
		</g>
		<g transform="translate(407,175)">
		</g>
		<g transform="translate(325,192)">
		</g>
		<g transform="translate(353,225)">
		</g>
		<g transform="translate(380,217)">
		</g>
		<g transform="translate(380,183)">
		</g>
		<g transform="translate(461,167)">
		</g>
		<g transform="translate(407,208)">
		</g>
		<g transform="translate(271,292)">
		</g>
		<g transform="translate(298,267)">
		</g>
		<g transform="translate(271,275)">
		</g>
		<g transform="translate(325,258)">
		</g>
		<g transform="translate(434,158)">
		</g>
		<g transform="translate(407,208)">
		</g>
		<g transform="translate(434,208)">
		</g>
		<g transform="translate(407,192)">
		</g>
		<g transform="translate(353,217)">
		</g>
		<g transform="translate(353,242)">
		</g>
		<g transform="translate(353,250)">
		</g>
		<g transform="translate(325,217)">
		</g>
		<g transform="translate(380,200)">
		</g>
		<g transform="translate(325,250)">
		</g>
		<g transform="translate(271,308)">
		</g>
		<g transform="translate(353,233)">
		</g>
		<g transform="translate(325,233)">
		</g>
		<g transform="translate(353,233)">
		</g>
		<g transform="translate(353,225)">
		</g>
		<g transform="translate(298,333)">
		</g>
		<g transform="translate(353,242)">
		</g>
		<g transform="translate(678,83)">
		</g>
		<g transform="translate(515,158)">
		</g>
		<g transform="translate(569,92)">
		</g>
		<g transform="translate(488,117)">
		</g>
		<g transform="translate(597,100)">
		</g>
		<g transform="translate(569,33)">
		</g>
		<g transform="translate(461,208)">
		</g>
		<g transform="translate(488,58)">
		</g>
		<g transform="translate(488,100)">
		</g>
		<g transform="translate(678,75)">
		</g>
		<g transform="translate(542,158)">
		</g>
		<g transform="translate(515,142)">
		</g>
		<g transform="translate(569,125)">
		</g>
		<g transform="translate(542,167)">
		</g>
		<g transform="translate(651,158)">
		</g>
		<g transform="translate(624,142)">
		</g>
		<g transform="translate(488,125)">
		</g>
		<g transform="translate(597,25)">
		</g>
		<g transform="translate(624,8)">
		</g>
		<g transform="translate(407,167)">
		</g>
		<g transform="translate(624,108)">
		</g>
		<g transform="translate(542,175)">
		</g>
		<g transform="translate(542,25)">
		</g>
		<g transform="translate(488,175)">
		</g>
		<g transform="translate(569,108)">
		</g>
		<g transform="translate(488,83)">
		</g>
		<g transform="translate(488,183)">
		</g>
		<g transform="translate(488,175)">
		</g>
		<g transform="translate(569,117)">
		</g>
		<g transform="translate(434,100)">
		</g>
		<g transform="translate(515,75)">
		</g>
		<g transform="translate(542,50)">
		</g>
		<g transform="translate(597,117)">
		</g>
		<g transform="translate(407,158)">
		</g>
		<g transform="translate(380,117)">
		</g>
		<g transform="translate(624,75)">
		</g>
		<g transform="translate(651,117)">
		</g>
		<g transform="translate(488,125)">
		</g>
		<g transform="translate(488,183)">
		</g>
		<g transform="translate(569,133)">
		</g>
		<g transform="translate(651,117)">
		</g>
		<g transform="translate(624,158)">
		</g>
		<g transform="translate(515,158)">
		</g>
		<g transform="translate(624,92)">
		</g>
		<g transform="translate(678,108)">
		</g>
		<g transform="translate(624,150)">
		</g>
		<g transform="translate(515,167)">
		</g>
		<g transform="translate(542,150)">
		</g>
		<g transform="translate(624,133)">
		</g>
		<g transform="translate(488,158)">
		</g>
	</g>
	<g id="axis">
		<g transform="translate(0,500)">
			<path class="st7" d="M0.5,6V0.5h705V6"/>
			<g transform="translate(0.5,0)">
				<line class="st7" x1="0" y1="0" x2="0" y2="6"/>
				<text transform="matrix(1 0 0 1 -6.9507 16.1)" class="st8 st9">0.0</text>
			</g>
			<g transform="translate(54.5,0)">
				<line class="st7" x1="0" y1="0" x2="0" y2="6"/>
				<text transform="matrix(1 0 0 1 -6.9507 16.1)" class="st8 st9">0.2</text>
			</g>
			<g transform="translate(108.5,0)">
				<line class="st7" x1="0" y1="0" x2="0" y2="6"/>
				<text transform="matrix(1 0 0 1 -6.9507 16.1)" class="st8 st9">0.4</text>
			</g>
			<g transform="translate(163.5,0)">
				<line class="st7" x1="0" y1="0" x2="0" y2="6"/>
				<text transform="matrix(1 0 0 1 -6.9507 16.1)" class="st8 st9">0.6</text>
			</g>
			<g transform="translate(217.5,0)">
				<line class="st7" x1="0" y1="0" x2="0" y2="6"/>
				<text transform="matrix(1 0 0 1 -6.9507 16.1)" class="st8 st9">0.8</text>
			</g>
			<g transform="translate(271.5,0)">
				<line class="st7" x1="0" y1="0" x2="0" y2="6"/>
				<text transform="matrix(1 0 0 1 -6.9507 16.1)" class="st8 st9">1.0</text>
			</g>
			<g transform="translate(325.5,0)">
				<line class="st7" x1="0" y1="0" x2="0" y2="6"/>
				<text transform="matrix(1 0 0 1 -6.9507 16.1)" class="st8 st9">1.2</text>
			</g>
			<g transform="translate(380.5,0)">
				<line class="st7" x1="0" y1="0" x2="0" y2="6"/>
				<text transform="matrix(1 0 0 1 -6.9507 16.1)" class="st8 st9">1.4</text>
			</g>
			<g transform="translate(434.5,0)">
				<line class="st7" x1="0" y1="0" x2="0" y2="6"/>
				<text transform="matrix(1 0 0 1 -6.9507 16.1)" class="st8 st9">1.6</text>
			</g>
			<g transform="translate(488.5,0)">
				<line class="st7" x1="0" y1="0" x2="0" y2="6"/>
				<text transform="matrix(1 0 0 1 -6.9507 16.1)" class="st8 st9">1.8</text>
			</g>
			<g transform="translate(542.5,0)">
				<line class="st7" x1="0" y1="0" x2="0" y2="6"/>
				<text transform="matrix(1 0 0 1 -6.9507 16.1)" class="st8 st9">2.0</text>
			</g>
			<g transform="translate(597.5,0)">
				<line class="st7" x1="0" y1="0" x2="0" y2="6"/>
				<text transform="matrix(1 0 0 1 -6.9507 16.1)" class="st8 st9">2.2</text>
			</g>
			<g transform="translate(651.5,0)">
				<line class="st7" x1="0" y1="0" x2="0" y2="6"/>
				<text transform="matrix(1 0 0 1 -6.9507 16.1)" class="st8 st9">2.4</text>
			</g>
			<g transform="translate(705.5,0)">
				<line class="st7" x1="0" y1="0" x2="0" y2="6"/>
				<text transform="matrix(1 0 0 1 -6.9507 16.1)" class="st8 st9">2.6</text>
			</g>
			<text transform="matrix(1 0 0 1 611.1035 -5)" class="st10 st11 st12">Petal Width (cm)</text>
		</g>
		<g>
			<path class="st7" d="M-6,500.5h6.5V0.5H-6"/>
			<g transform="translate(0,500.5)">
				<line class="st7" x1="0" y1="0" x2="-6" y2="0"/>
				<text transform="matrix(1 0 0 1 -22.9014 3.2)" class="st8 st9">1.0</text>
			</g>
			<g transform="translate(0,458.5)">
				<line class="st7" x1="0" y1="0" x2="-6" y2="0"/>
				<text transform="matrix(1 0 0 1 -22.9014 3.2)" class="st8 st9">1.5</text>
			</g>
			<g transform="translate(0,417.5)">
				<line class="st7" x1="0" y1="0" x2="-6" y2="0"/>
				<text transform="matrix(1 0 0 1 -22.9014 3.2)" class="st8 st9">2.0</text>
			</g>
			<g transform="translate(0,375.5)">
				<line class="st7" x1="0" y1="0" x2="-6" y2="0"/>
				<text transform="matrix(1 0 0 1 -22.9014 3.2)" class="st8 st9">2.5</text>
			</g>
			<g transform="translate(0,333.5)">
				<line class="st7" x1="0" y1="0" x2="-6" y2="0"/>
				<text transform="matrix(1 0 0 1 -22.9014 3.2)" class="st8 st9">3.0</text>
			</g>
			<g transform="translate(0,292.5)">
				<line class="st7" x1="0" y1="0" x2="-6" y2="0"/>
				<text transform="matrix(1 0 0 1 -22.9014 3.2)" class="st8 st9">3.5</text>
			</g>
			<g transform="translate(0,250.5)">
				<line class="st7" x1="0" y1="0" x2="-6" y2="0"/>
				<text transform="matrix(1 0 0 1 -22.9014 3.2)" class="st8 st9">4.0</text>
			</g>
			<g transform="translate(0,208.5)">
				<line class="st7" x1="0" y1="0" x2="-6" y2="0"/>
				<text transform="matrix(1 0 0 1 -22.9014 3.2)" class="st8 st9">4.5</text>
			</g>
			<g transform="translate(0,167.5)">
				<line class="st7" x1="0" y1="0" x2="-6" y2="0"/>
				<text transform="matrix(1 0 0 1 -22.9014 3.2)" class="st8 st9">5.0</text>
			</g>
			<g transform="translate(0,125.5)">
				<line class="st7" x1="0" y1="0" x2="-6" y2="0"/>
				<text transform="matrix(1 0 0 1 -22.9014 3.2)" class="st8 st9">5.5</text>
			</g>
			<g transform="translate(0,83.5)">
				<line class="st7" x1="0" y1="0" x2="-6" y2="0"/>
				<text transform="matrix(1 0 0 1 -22.9014 3.2)" class="st8 st9">6.0</text>
			</g>
			<g transform="translate(0,42.5)">
				<line class="st7" x1="0" y1="0" x2="-6" y2="0"/>
				<text transform="matrix(1 0 0 1 -22.9014 3.2)" class="st8 st9">6.5</text>
			</g>
			<g transform="translate(0,0.5)">
				<line class="st7" x1="0" y1="0" x2="-6" y2="0"/>
				<text transform="matrix(1 0 0 1 -22.9014 3.2)" class="st8 st9">7.0</text>
			</g>
			<text transform="matrix(1 0 0 1 4 10.2949)" class="st10 st11 st12">Petal Length (cm)</text>
		</g>
	</g>
</g>
<text transform="matrix(1 0 0 1 611.1893 249)" class="st6 st11 st12">Iris Virginica</text>
<text transform="matrix(1 0 0 1 446.6553 334)" class="st4 st11 st12">Iris Versicolor</text>
<text transform="matrix(1 0 0 1 187 534)" class="st2 st11 st12">Iris Setosa</text>
</svg>
